# xmcd
#
# Track frame offsets:
# 150
# 14520
# 28380
# 43020
# 56702
# 71199
# 86351
# 100676
# 116186
# 130422
# 143352
# 159479
# 174996
# 189417
#
# Disc length: 2708 seconds
#
#
# Revision: 4
# Processed by: cddbd v1.5.2PL0 Copyright (c) Steve Scherf et al.
# Submitted via: FreeRIP 2.944 
#
DISCID=c00a920e
DTITLE=Os Quatro Gaudérios - De Cara Nova Vol. 5
DYEAR=2008
DGENRE=Gaúcha
TTITLE0=BALAQUEIRO
TTITLE1=QUANDO ELA CHEGA
TTITLE2=VENENO DA PAIXÃO
TTITLE3=LARGUEI DE MÃO
TTITLE4=VIRA LATA
TTITLE5=BATE COXA
TTITLE6=VACA MANSA
TTITLE7=CATRACADA
TTITLE8=PROCURO UM AMOR
TTITLE9=O FOLE VAI O FOLE VEM
TTITLE10=JOGO DE SEDUÇÃO
TTITLE11=PRÁ FAZER ZUEIRA
TTITLE12=SOFRENDO DEMAIS
TTITLE13=NÃO APAGA NADA
EXTD=
EXTT0=
EXTT1=
EXTT2=
EXTT3=
EXTT4=
EXTT5=
EXTT6=
EXTT7=
EXTT8=
EXTT9=
EXTT10=
EXTT11=
EXTT12=
EXTT13=
PLAYORDER=
